<?xml version="1.0" encoding="utf-8"?>
<!-- Generator: Adobe Illustrator 16.0.0, SVG Export Plug-In . SVG Version: 6.00 Build 0)  -->
<!DOCTYPE svg PUBLIC "-//W3C//DTD SVG 1.1//EN" "http://www.w3.org/Graphics/SVG/1.1/DTD/svg11.dtd">
<svg version="1.1" xmlns="http://www.w3.org/2000/svg" xmlns:xlink="http://www.w3.org/1999/xlink" x="0px" y="0px" width="256px"
	 height="256px" viewBox="0 0 256 256" enable-background="new 0 0 256 256" xml:space="preserve">
<g id="Layer_1">
	<path fill="#FF1D25" stroke="#FF1D25" stroke-width="2" stroke-miterlimit="10" d="M134.12,84.691
		c-2.964,0.096-5.938,0.155-8.914,0.176c-0.801-0.767-1.636-1.583-2.533-2.446c-23.492-22.88-5.841-63.008-5.841-63.008
		l10.522,39.721c3.751-12.166,18.53-22.05,18.53-22.05L134.12,84.691"/>
	<path fill="#F2F2F2" stroke="#F2F2F2" stroke-width="2" stroke-miterlimit="10" d="M233.25,152.125
		c0,40.938-46.73,74.125-104.375,74.125S24.5,193.063,24.5,152.125c0-40.331,45.355-73.139,101.818-74.104
		c0.85-0.014,1.702-0.021,2.557-0.021C186.52,78,233.25,111.187,233.25,152.125z"/>
	<circle stroke="#000000" stroke-width="2" stroke-miterlimit="10" cx="52.25" cy="155" r="9.25"/>
	<circle stroke="#000000" stroke-width="2" stroke-miterlimit="10" cx="204.25" cy="155" r="9.25"/>
	<polygon fill="#FBB03B" points="140.75,155 129.499,174.487 118.249,155 	"/>
</g>
<g id="Layer_2" display="none">
	<path display="inline" fill="#F2F2F2" stroke="#F2F2F2" stroke-width="2" stroke-miterlimit="10" d="M75.345,242
		C67.975,242,62,236.025,62,228.655V27.345C62,19.975,67.975,14,75.345,14h105.311C188.025,14,194,19.975,194,27.345v201.311
		c0,7.37-5.975,13.345-13.345,13.345H75.345z"/>
	<path display="inline" fill="#4D4D4D" stroke="#F2F2F2" stroke-width="2" stroke-miterlimit="10" d="M81.864,222
		C75.312,222,70,216.688,70,210.135V31.865C70,25.312,75.312,20,81.864,20h93.271C181.688,20,187,25.312,187,31.865v178.27
		c0,6.553-5.313,11.865-11.864,11.865H81.864z"/>
	<circle display="inline" fill="#CCCCCC" cx="127.833" cy="231.833" r="7.5"/>
</g>
<g id="Layer_3" display="none">
	<path display="inline" fill="#F2F2F2" d="M248,204.42c0,6.072-5.939,11.58-12.712,11.58H21.712C14.939,216,9,210.492,9,204.42
		V72.447C9,66.373,14.939,62,21.712,62h213.576C242.061,62,248,66.373,248,72.447V204.42z"/>
	<path display="inline" fill="#E6E6E6" d="M242,102.871c0,4.623-5.402,8.129-12.066,8.129H27.066C20.402,111,15,107.494,15,102.871
		v-17.25C15,80.998,20.402,77,27.066,77h202.867C236.598,77,242,80.998,242,85.621V102.871z"/>
	<rect x="15" y="115" display="inline" fill="#E6E6E6" width="26" height="25"/>
	<rect x="48" y="115" display="inline" fill="#E6E6E6" width="26" height="25"/>
	<rect x="82" y="115" display="inline" fill="#E6E6E6" width="27" height="25"/>
	<rect x="115" y="115" display="inline" fill="#E6E6E6" width="26" height="25"/>
	<rect x="148" y="115" display="inline" fill="#E6E6E6" width="27" height="25"/>
	<rect x="183" y="115" display="inline" fill="#E6E6E6" width="26" height="25"/>
	<rect x="216" y="115" display="inline" fill="#E6E6E6" width="26" height="25"/>
	<rect x="15" y="145" display="inline" fill="#E6E6E6" width="26" height="25"/>
	<rect x="48" y="145" display="inline" fill="#E6E6E6" width="26" height="25"/>
	<rect x="82" y="145" display="inline" fill="#E6E6E6" width="27" height="25"/>
	<rect x="115" y="145" display="inline" fill="#E6E6E6" width="26" height="25"/>
	<rect x="148" y="145" display="inline" fill="#E6E6E6" width="27" height="25"/>
	<rect x="183" y="145" display="inline" fill="#E6E6E6" width="26" height="25"/>
	<rect x="216" y="145" display="inline" fill="#E6E6E6" width="26" height="25"/>
	<rect x="15" y="175" display="inline" fill="#E6E6E6" width="26" height="25"/>
	<rect x="48" y="175" display="inline" fill="#E6E6E6" width="26" height="25"/>
	<rect x="82" y="175" display="inline" fill="#E6E6E6" width="27" height="25"/>
	<rect x="115" y="175" display="inline" fill="#E6E6E6" width="26" height="25"/>
	<rect x="148" y="175" display="inline" fill="#E6E6E6" width="27" height="25"/>
	<rect x="183" y="175" display="inline" fill="#E6E6E6" width="26" height="25"/>
	<rect x="216" y="175" display="inline" fill="#E6E6E6" width="26" height="25"/>
	<path display="inline" fill="#999999" d="M34,68.479C34,69.871,32.871,71,31.479,71h-0.958C29.129,71,28,69.871,28,68.479V56.521
		C28,55.129,29.129,54,30.521,54h0.958C32.871,54,34,55.129,34,56.521V68.479z"/>
	<path display="inline" fill="#999999" d="M50,68.479C50,69.871,48.871,71,47.479,71h-0.958C45.129,71,44,69.871,44,68.479V56.521
		C44,55.129,45.129,54,46.521,54h0.958C48.871,54,50,55.129,50,56.521V68.479z"/>
	<path display="inline" fill="#999999" d="M66,68.479C66,69.871,64.871,71,63.479,71h-0.958C61.129,71,60,69.871,60,68.479V56.521
		C60,55.129,61.129,54,62.521,54h0.958C64.871,54,66,55.129,66,56.521V68.479z"/>
	<path display="inline" fill="#999999" d="M82,68.479C82,69.871,80.871,71,79.479,71h-0.958C77.129,71,76,69.871,76,68.479V56.521
		C76,55.129,77.129,54,78.521,54h0.958C80.871,54,82,55.129,82,56.521V68.479z"/>
	<path display="inline" fill="#999999" d="M99,68.479C99,69.871,97.871,71,96.479,71h-0.958C94.129,71,93,69.871,93,68.479V56.521
		C93,55.129,94.129,54,95.521,54h0.958C97.871,54,99,55.129,99,56.521V68.479z"/>
	<path display="inline" fill="#999999" d="M115,68.479c0,1.392-1.129,2.521-2.521,2.521h-0.958c-1.392,0-2.521-1.129-2.521-2.521
		V56.521c0-1.392,1.129-2.521,2.521-2.521h0.958c1.392,0,2.521,1.129,2.521,2.521V68.479z"/>
	<path display="inline" fill="#999999" d="M131,68.479c0,1.392-1.129,2.521-2.521,2.521h-0.958c-1.392,0-2.521-1.129-2.521-2.521
		V56.521c0-1.392,1.129-2.521,2.521-2.521h0.958c1.393,0,2.521,1.129,2.521,2.521V68.479z"/>
	<path display="inline" fill="#999999" d="M147,68.479c0,1.392-1.129,2.521-2.521,2.521h-0.957c-1.393,0-2.521-1.129-2.521-2.521
		V56.521c0-1.392,1.129-2.521,2.521-2.521h0.957c1.393,0,2.521,1.129,2.521,2.521V68.479z"/>
	<path display="inline" fill="#999999" d="M163,68.479c0,1.392-1.129,2.521-2.521,2.521h-0.957c-1.393,0-2.521-1.129-2.521-2.521
		V56.521c0-1.392,1.129-2.521,2.521-2.521h0.957c1.393,0,2.521,1.129,2.521,2.521V68.479z"/>
	<path display="inline" fill="#999999" d="M180,68.479c0,1.392-1.129,2.521-2.521,2.521h-0.957c-1.393,0-2.521-1.129-2.521-2.521
		V56.521c0-1.392,1.129-2.521,2.521-2.521h0.957c1.393,0,2.521,1.129,2.521,2.521V68.479z"/>
	<path display="inline" fill="#999999" d="M196,68.479c0,1.392-1.129,2.521-2.521,2.521h-0.957c-1.393,0-2.521-1.129-2.521-2.521
		V56.521c0-1.392,1.129-2.521,2.521-2.521h0.957c1.393,0,2.521,1.129,2.521,2.521V68.479z"/>
	<path display="inline" fill="#999999" d="M212,68.479c0,1.392-1.129,2.521-2.521,2.521h-0.957c-1.393,0-2.521-1.129-2.521-2.521
		V56.521c0-1.392,1.129-2.521,2.521-2.521h0.957c1.393,0,2.521,1.129,2.521,2.521V68.479z"/>
	<path display="inline" fill="#999999" d="M228,68.479c0,1.392-1.129,2.521-2.521,2.521h-0.957c-1.393,0-2.521-1.129-2.521-2.521
		V56.521c0-1.392,1.129-2.521,2.521-2.521h0.957c1.393,0,2.521,1.129,2.521,2.521V68.479z"/>
</g>
</svg>
